<?xml version="1.0" encoding="UTF-8" standalone="no"?>
<svg
   xmlns:dc="http://purl.org/dc/elements/1.1/"
   xmlns:cc="http://creativecommons.org/ns#"
   xmlns:rdf="http://www.w3.org/1999/02/22-rdf-syntax-ns#"
   xmlns:svg="http://www.w3.org/2000/svg"
   xmlns="http://www.w3.org/2000/svg"
   xmlns:sodipodi="http://sodipodi.sourceforge.net/DTD/sodipodi-0.dtd"
   xmlns:inkscape="http://www.inkscape.org/namespaces/inkscape"
   width="244.15793"
   height="126.50987"
   clip-rule="evenodd"
   stroke-miterlimit="10"
   viewBox="0 0 244.16013 126.5079"
   id="svg3097"
   version="1.1"
   inkscape:version="0.48.2 r9819"
   sodipodi:docname="Caffeine-2D-skeletal.svg"
   inkscape:export-filename="/Users/drew/Downloads/Caffeine-2D-skeletal.png"
   inkscape:export-xdpi="299.79037"
   inkscape:export-ydpi="299.79037"
   style="stroke-miterlimit:10">
  <metadata
     id="metadata3169">
    <rdf:RDF>
      <cc:Work
         rdf:about="">
        <dc:format>image/svg+xml</dc:format>
        <dc:type
           rdf:resource="http://purl.org/dc/dcmitype/StillImage" />
        <dc:title></dc:title>
      </cc:Work>
    </rdf:RDF>
  </metadata>
  <sodipodi:namedview
     pagecolor="#ffffff"
     bordercolor="#666666"
     borderopacity="1"
     objecttolerance="10"
     gridtolerance="10"
     guidetolerance="10"
     inkscape:pageopacity="0"
     inkscape:pageshadow="2"
     inkscape:window-width="1333"
     inkscape:window-height="772"
     id="namedview3167"
     showgrid="false"
     inkscape:zoom="4.6279743"
     inkscape:cx="87.978227"
     inkscape:cy="74.147483"
     inkscape:window-x="41"
     inkscape:window-y="88"
     inkscape:window-maximized="0"
     inkscape:current-layer="svg3097"
     fit-margin-top="0"
     fit-margin-left="0"
     fit-margin-right="0"
     fit-margin-bottom="0"
     showguides="true"
     inkscape:guide-bbox="true" />
  <desc
     id="desc3099">SVG generated by Lineform</desc>
  <defs
     id="defs3101" />
  <g
     inkscape:groupmode="layer"
     id="layer4"
     inkscape:label="Layer"
     style="display:inline"
     transform="translate(7.3339717,-16.500968)" />
  <g
     id="g3103"
     transform="matrix(1,0,0,0.71229656,47.670817,-1.4493526)">
    <g
       id="g3105"
       style="fill:#86b82d;fill-opacity:1">
      <path
         d="m 64.08,77.66 0,-16.33 2.22,0 8.56,12.81 0,-12.81 2.07,0 0,16.33 -2.22,0 -8.55,-12.82 0,12.82 -2.08,0 0,0 z m 0,0"
         id="path3107"
         style="fill:#86b82d;fill-opacity:1"
         inkscape:connector-curvature="0" />
    </g>
    <g
       id="g3109"
       style="fill:#86b82d;fill-opacity:1">
      <path
         d="m 96.76,134.23 0,-16.33 2.22,0 8.56,12.81 0,-12.81 2.07,0 0,16.33 -2.22,0 -8.55,-12.81 0,12.81 -2.08,0 z m 0,0"
         id="path3111"
         style="fill:#86b82d;fill-opacity:1"
         inkscape:connector-curvature="0" />
    </g>
    <path
       d="m 71.37,105.92 -1.62,0.95 0,-27.12 1.62,0 0,26.17 z m 0,0"
       id="path3113"
       style="fill:#86b82d;fill-opacity:1"
       inkscape:connector-curvature="0" />
    <path
       d="m 93.83,118.89 -0.8,1.37 -23.28,-13.39 1.62,-0.95 22.46,12.97 z m 0,0"
       id="path3115"
       style="fill:#86b82d;fill-opacity:1"
       inkscape:connector-curvature="0" />
    <path
       d="m 135.02,105.92 0.85,0.47 0.05,0.86 -22.61,13.06 -0.81,-1.37 22.52,-13.02 z m 0,0"
       id="path3117"
       style="fill:#86b82d;fill-opacity:1"
       inkscape:connector-curvature="0" />
    <path
       d="m 135.02,69.15 0.85,-0.47 0.81,0.57 0,36.53 -0.81,0.61 -0.85,-0.47 0,-36.77 z m 0,0"
       id="path3119"
       style="fill:#86b82d;fill-opacity:1"
       inkscape:connector-curvature="0" />
    <path
       d="m 140.72,72.81 1.61,0 0,29.45 -1.61,0 0,-29.45 z m 0,0"
       id="path3121"
       style="fill:#86b82d;fill-opacity:1"
       inkscape:connector-curvature="0" />
    <path
       d="m 103.19,50.77 0,-1.85 32.73,18.9 -0.05,0.86 -0.85,0.47 -31.83,-18.38 z m 0,0"
       id="path3123"
       style="fill:#86b82d;fill-opacity:1"
       inkscape:connector-curvature="0" />
    <path
       d="m 80.68,63.79 -0.81,-1.43 23.32,-13.44 0,1.85 -22.51,13.02 z m 0,0"
       id="path3125"
       style="fill:#86b82d;fill-opacity:1"
       inkscape:connector-curvature="0" />
    <g
       id="g3127"
       style="fill:#86b82d;fill-opacity:1">
      <path
         d="m 165.25,127.01 0,-16.33 2.23,0 8.55,12.82 0,-12.82 2.08,0 0,16.33 -2.22,0 -8.56,-12.81 0,12.81 -2.08,0 z m 0,0"
         id="path3129"
         style="fill:#86b82d;fill-opacity:1"
         inkscape:connector-curvature="0" />
    </g>
    <g
       id="g3131"
       style="fill:#86b82d;fill-opacity:1">
      <path
         d="m 165.25,66.02 0,-16.33 2.23,0 8.55,12.82 0,-12.82 2.08,0 0,16.33 -2.22,0 -8.56,-12.81 0,12.81 -2.08,0 0,0 z m 0,0"
         id="path3133"
         style="fill:#86b82d;fill-opacity:1"
         inkscape:connector-curvature="0" />
    </g>
    <path
       d="m 162.57,114.23 -0.53,1.52 -26.12,-8.5 -0.05,-0.86 0.81,-0.61 25.89,8.45 z m 0,0"
       id="path3135"
       style="fill:#86b82d;fill-opacity:1"
       inkscape:connector-curvature="0" />
    <path
       d="m 192.87,87.54 2,0 -15.54,21.37 -1.33,-0.95 14.87,-20.42 z m 0,0"
       id="path3137"
       style="fill:#86b82d;fill-opacity:1"
       inkscape:connector-curvature="0" />
    <path
       d="m 186.22,87.06 1.28,0.95 -12.73,17.58 -1.33,-0.95 12.78,-17.58 z m 0,0"
       id="path3139"
       style="fill:#86b82d;fill-opacity:1"
       inkscape:connector-curvature="0" />
    <path
       d="m 178.76,68.11 1.33,-0.95 14.78,20.38 -2,0 -14.11,-19.43 z m 0,0"
       id="path3141"
       style="fill:#86b82d;fill-opacity:1"
       inkscape:connector-curvature="0" />
    <path
       d="m 136.68,69.25 -0.81,-0.57 0.05,-0.86 26.12,-8.5 0.53,1.52 -25.89,8.41 z m 0,0"
       id="path3143"
       style="fill:#86b82d;fill-opacity:1"
       inkscape:connector-curvature="0" />
    <g
       id="g3145"
       style="fill:#86b82d;fill-opacity:1">
      <path
         d="m 30.14,126.24 c 0,-2.71 0.73,-4.84 2.19,-6.37 1.45,-1.53 3.33,-2.3 5.63,-2.3 1.51,0 2.87,0.36 4.08,1.08 1.21,0.72 2.13,1.73 2.77,3.02 0.63,1.28 0.95,2.74 0.95,4.38 0,1.65 -0.34,3.13 -1,4.44 -0.67,1.31 -1.62,2.3 -2.84,2.97 -1.23,0.67 -2.55,1.01 -3.97,1.01 -1.54,0 -2.91,-0.38 -4.12,-1.12 -1.21,-0.74 -2.13,-1.75 -2.75,-3.04 -0.63,-1.28 -0.94,-2.64 -0.94,-4.07 z m 2.23,0.02 c 0,1.97 0.53,3.52 1.59,4.65 1.06,1.13 2.38,1.7 3.98,1.7 1.63,0 2.96,-0.57 4.02,-1.72 1.05,-1.14 1.57,-2.76 1.57,-4.86 0,-1.33 -0.22,-2.49 -0.67,-3.48 -0.45,-0.99 -1.11,-1.76 -1.97,-2.3 -0.87,-0.55 -1.84,-0.82 -2.92,-0.82 -1.53,0 -2.84,0.52 -3.95,1.57 -1.1,1.05 -1.65,2.81 -1.65,5.26 z m 0,0"
         id="path3147"
         style="fill:#86b82d;fill-opacity:1"
         inkscape:connector-curvature="0" />
    </g>
    <path
       d="m 48.28,123.45 -0.81,-1.43 25.51,-14.72 0.81,1.42 -25.51,14.73 z m 0,0"
       id="path3149"
       style="fill:#86b82d;fill-opacity:1"
       inkscape:connector-curvature="0" />
    <path
       d="m 45.43,118.55 -0.81,-1.42 25.51,-14.73 0.81,1.43 -25.51,14.72 z m 0,0"
       id="path3151"
       style="fill:#86b82d;fill-opacity:1"
       inkscape:connector-curvature="0" />
    <g
       id="g3153"
       style="fill:#86b82d;fill-opacity:1">
      <path
         d="m 95.41,13.19 c 0,-2.71 0.73,-4.84 2.18,-6.37 1.46,-1.53 3.34,-2.3 5.64,-2.3 1.51,0 2.86,0.36 4.07,1.08 1.21,0.72 2.14,1.73 2.77,3.02 0.64,1.28 0.95,2.74 0.95,4.38 0,1.65 -0.33,3.13 -1,4.44 -0.67,1.31 -1.61,2.3 -2.84,2.97 -1.22,0.67 -2.55,1.01 -3.96,1.01 -1.54,0 -2.91,-0.38 -4.12,-1.12 -1.22,-0.74 -2.13,-1.75 -2.76,-3.04 -0.62,-1.28 -0.93,-2.64 -0.93,-4.07 z m 2.22,0.02 c 0,1.97 0.53,3.52 1.59,4.65 1.06,1.13 2.39,1.7 3.98,1.7 1.63,0 2.97,-0.57 4.02,-1.72 1.05,-1.14 1.58,-2.76 1.58,-4.86 0,-1.33 -0.23,-2.49 -0.68,-3.48 -0.45,-0.99 -1.1,-1.76 -1.97,-2.3 -0.86,-0.55 -1.83,-0.82 -2.91,-0.82 -1.53,0 -2.85,0.52 -3.95,1.57 -1.1,1.05 -1.66,2.81 -1.66,5.26 z m 0,0"
         id="path3155"
         style="fill:#86b82d;fill-opacity:1"
         inkscape:connector-curvature="0" />
    </g>
    <path
       d="m 99.58,23.55 1.62,0 0,27.93 -1.62,0 0,-27.93 z m 0,0"
       id="path3157"
       style="fill:#86b82d;fill-opacity:1"
       inkscape:connector-curvature="0" />
    <path
       d="m 105.23,23.55 1.62,0 0,27.93 -1.62,0 0,-27.93 z m 0,0"
       id="path3159"
       style="fill:#86b82d;fill-opacity:1"
       inkscape:connector-curvature="0" />
    <path
       d="m 102.38,134.47 1.62,0 0,33.62 -1.62,0 0,-33.62 z m 0,0"
       id="path3161"
       style="fill:#86b82d;fill-opacity:1"
       inkscape:connector-curvature="0" />
    <path
       d="M 32.37,44.31 33.2,42.93 62.02,60.24 61.19,61.63 32.37,44.31 z m 0,0"
       id="path3163"
       style="fill:#86b82d;fill-opacity:1"
       inkscape:connector-curvature="0" />
    <path
       d="m 187.68,15.21 1.52,0.55 -11.5,31.59 -1.52,-0.55 11.5,-31.59 z m 0,0"
       id="path3165"
       style="fill:#86b82d;fill-opacity:1"
       inkscape:connector-curvature="0" />
  </g>
  <text
     xml:space="preserve"
     style="font-size:40.00035858px;font-style:normal;font-variant:normal;font-weight:500;font-stretch:normal;line-height:125%;letter-spacing:0px;word-spacing:0px;fill:#27938e;fill-opacity:1;stroke:none;font-family:Apple LiGothic;-inkscape-font-specification:Apple LiGothic Medium"
     x="-0.61116487"
     y="123.14787"
     id="text5545"
     sodipodi:linespacing="125%"><tspan
       sodipodi:role="line"
       id="tspan5547"
       x="-0.61116487"
       y="123.14787"
       style="font-style:italic;font-variant:normal;font-weight:500;font-stretch:normal;fill:#27938e;fill-opacity:1;font-family:Avenir;-inkscape-font-specification:Avenir Medium">caffeine</tspan></text>
</svg>
